<?xml version="1.0" encoding="utf-8"?>
<!-- Generator: Adobe Illustrator 24.3.0, SVG Export Plug-In . SVG Version: 6.00 Build 0)  -->
<svg version="1.1" id="Layer_1" xmlns="http://www.w3.org/2000/svg" xmlns:xlink="http://www.w3.org/1999/xlink" x="0px" y="0px"
	 width="24px" height="5px" viewBox="0 0 24 5" enable-background="new 0 0 24 5" xml:space="preserve">
<path fill="#FFF1BE" d="M48,0.8c-1.7,0-2.6,0.6-3.4,1.1l0.1,0.2l-0.1-0.2c-0.7,0.5-1.3,0.8-2.6,0.8c-1.3,0-1.9-0.4-2.6-0.8
	c-0.8-0.5-1.7-1.1-3.4-1.1c-1.7,0-2.6,0.6-3.4,1.1c-0.7,0.5-1.3,0.8-2.6,0.8c-1.3,0-1.9-0.4-2.6-0.8c-0.7-0.5-1.7-1.1-3.4-1.1
	c-1.7,0-2.6,0.6-3.4,1.1c-0.7,0.5-1.3,0.8-2.6,0.8c-1.3,0-1.9-0.4-2.6-0.8c-0.8-0.5-1.7-1.1-3.4-1.1c-1.7,0-2.6,0.6-3.4,1.1
	C7.9,2.3,7.3,2.7,6,2.7c-1.3,0-1.9-0.4-2.6-0.8C2.6,1.4,1.7,0.8,0,0.8c-1.7,0-2.6,0.6-3.4,1.1C-4.1,2.3-4.7,2.7-6,2.7
	c-1.3,0-1.9-0.4-2.6-0.8c-0.8-0.5-1.7-1.1-3.4-1.1c-1.7,0-2.6,0.6-3.4,1.1c-0.7,0.5-1.3,0.8-2.6,0.8c-1.3,0-1.9-0.4-2.6-0.8
	c-0.8-0.5-1.7-1.1-3.4-1.1h-0.2v1.5h0.2c1.3,0,1.9,0.4,2.6,0.8c0.8,0.5,1.7,1.1,3.4,1.1c1.7,0,2.6-0.6,3.4-1.1
	c0.7-0.5,1.3-0.8,2.6-0.8c1.3,0,1.9,0.4,2.6,0.8C-8.6,3.6-7.7,4.2-6,4.2c1.7,0,2.6-0.6,3.4-1.1C-1.9,2.7-1.3,2.3,0,2.3
	c1.3,0,1.9,0.4,2.6,0.8C3.4,3.6,4.3,4.2,6,4.2c1.7,0,2.6-0.6,3.4-1.1c0.7-0.5,1.3-0.8,2.6-0.8c1.3,0,1.9,0.4,2.6,0.8
	c0.8,0.5,1.7,1.1,3.4,1.1c1.7,0,2.6-0.6,3.4-1.1c0.7-0.5,1.3-0.8,2.6-0.8c1.3,0,1.9,0.4,2.6,0.8c0.7,0.5,1.7,1.1,3.4,1.1
	c1.7,0,2.6-0.6,3.4-1.1c0.7-0.5,1.3-0.8,2.6-0.8s1.9,0.4,2.6,0.8c0.8,0.5,1.7,1.1,3.4,1.1c1.7,0,2.6-0.6,3.4-1.1
	c0.7-0.5,1.3-0.8,2.6-0.8h0.2V0.8H48z"/>
</svg>
