<svg width="24" height="24" viewBox="0 0 24 24" fill="none" xmlns="http://www.w3.org/2000/svg">
<path d="M11.9999 3.80184C14.67 3.80184 14.9863 3.81204 16.0409 3.86015C17.0158 3.90465 17.5453 4.06752 17.8977 4.20447C18.3321 4.36477 18.7249 4.62039 19.0475 4.95252C19.3796 5.27508 19.6352 5.66798 19.7956 6.10233C19.9325 6.4547 20.0954 6.98419 20.1399 7.95918C20.188 9.01368 20.1982 9.32993 20.1982 12.0001C20.1982 14.6703 20.188 14.9865 20.1399 16.0411C20.0954 17.0161 19.9325 17.5455 19.7956 17.898C19.6292 18.3292 19.3744 18.7209 19.0475 19.0478C18.7207 19.3746 18.329 19.6294 17.8977 19.7958C17.5453 19.9328 17.0158 20.0957 16.0409 20.1401C14.9866 20.1882 14.6703 20.1984 11.9999 20.1984C9.32956 20.1984 9.01343 20.1882 7.95902 20.1401C6.98403 20.0956 6.45458 19.9327 6.10217 19.7958C5.66783 19.6355 5.27494 19.3799 4.95238 19.0478C4.62025 18.7252 4.36464 18.3323 4.20433 17.898C4.06738 17.5456 3.90447 17.0161 3.86002 16.0411C3.81191 14.9866 3.8017 14.6703 3.8017 12.0001C3.8017 9.32993 3.81191 9.01376 3.86002 7.95918C3.90451 6.98419 4.06738 6.45474 4.20433 6.10233C4.36465 5.66796 4.6203 5.27505 4.95246 4.95248C5.27502 4.62035 5.66791 4.36474 6.10225 4.20443C6.45462 4.06748 6.98411 3.90457 7.95909 3.86011C9.01359 3.812 9.32983 3.8018 12 3.8018L11.9999 3.80184ZM12 2C9.28419 2 8.94352 2.01151 7.87709 2.06018C6.81267 2.10876 6.08578 2.27779 5.44971 2.52501C4.78247 2.7761 4.17802 3.16973 3.67853 3.67843C3.16972 4.17789 2.77599 4.78234 2.5248 5.44962C2.27778 6.08573 2.10876 6.81263 2.06038 7.87705C2.01151 8.9435 2 9.28416 2 12C2 14.7159 2.01151 15.0565 2.06038 16.123C2.10896 17.1874 2.27798 17.9143 2.5252 18.5504C2.7763 19.2176 3.16992 19.8221 3.67861 20.3216C4.1781 20.8303 4.78254 21.2239 5.44979 21.475C6.0859 21.7222 6.81279 21.8912 7.87717 21.9398C8.94376 21.9885 9.2843 22 12.0001 22C14.7159 22 15.0566 21.9885 16.123 21.9398C17.1874 21.8912 17.9143 21.7222 18.5504 21.475C19.2147 21.2181 19.818 20.8252 20.3216 20.3216C20.8252 19.818 21.2181 19.2147 21.475 18.5504C21.7222 17.9143 21.8912 17.1874 21.9398 16.123C21.9885 15.0564 22 14.7158 22 12C22 9.2842 21.9885 8.9435 21.9398 7.87705C21.8912 6.81263 21.7222 6.08573 21.475 5.44966C21.2239 4.78241 20.8303 4.17796 20.3216 3.67847C19.8221 3.16966 19.2176 2.77596 18.5503 2.52481C17.9142 2.27779 17.1873 2.10876 16.1229 2.06038C15.0564 2.01151 14.7158 2 11.9999 2H12Z" fill="#F78154"/>
<path d="M9.04119 17.204H6.97244V9.61857H9.04119V17.204ZM8.00682 8.74418C7.34068 8.74418 6.80005 8.19941 6.80005 7.52776C6.80005 6.85611 7.34068 6.31134 8.00682 6.31134C8.67295 6.31134 9.21358 6.85611 9.21358 7.52776C9.21358 8.19941 8.67364 8.74418 8.00682 8.74418ZM17.3162 17.204H15.2474V13.3396C15.2474 11.017 12.4891 11.1929 12.4891 13.3396V17.204H10.4204V9.61857H12.4891V10.8357C13.4517 9.05243 17.3162 8.92072 17.3162 12.5431V17.204Z" fill="#F78154"/>
</svg>
