<?xml version="1.0" encoding="utf-8"?>
<!-- Generator: Adobe Illustrator 24.3.0, SVG Export Plug-In . SVG Version: 6.00 Build 0)  -->
<svg version="1.1" id="Layer_1" xmlns="http://www.w3.org/2000/svg" xmlns:xlink="http://www.w3.org/1999/xlink" x="0px" y="0px"
	 width="24px" height="24px" viewBox="0 0 24 24" style="enable-background:new 0 0 24 24;" xml:space="preserve">
<style type="text/css">
	.st0{fill:#F78154;}
	.st1{fill:#FF0000;}
</style>
<path class="st0" d="M12,3.8c2.7,0,3,0,4,0.1c1,0,1.5,0.2,1.9,0.3c0.4,0.2,0.8,0.4,1.2,0.8c0.3,0.3,0.6,0.7,0.7,1.1
	C19.9,6.5,20.1,7,20.1,8c0,1,0.1,1.3,0.1,4s0,3-0.1,4c0,1-0.2,1.5-0.3,1.9c-0.3,0.9-1,1.6-1.9,1.9c-0.4,0.1-0.9,0.3-1.9,0.3l-0.1,0
	v-2.9c0-0.1,0-0.1,0-0.2c2.5-1,3-3.3,3-5.1c0-0.9-0.2-1.7-0.7-2.5c0.1-0.6,0-1.4-0.3-2.3c-0.2-0.5-0.6-0.9-1.1-1
	c-0.2-0.1-0.5-0.1-0.7-0.1c-0.7,0-1.5,0.2-2.3,0.7c-0.5-0.1-1.1-0.1-1.6-0.1c-0.5,0-1.1,0-1.6,0.1C9.7,6.2,8.9,5.9,8.3,5.9
	C8,5.9,7.7,6,7.5,6C7,6.2,6.6,6.6,6.4,7.1C6,8,6,8.8,6.1,9.4c-0.4,0.7-0.7,1.6-0.7,2.5c0,0.6,0.1,1.3,0.2,1.9
	c-0.5,0.3-0.8,0.7-0.9,1.1c-0.1,0.4-0.3,1.5,1,2.4c0,0,0,0,0.1,0c0,0,0.1,0.1,0.1,0.3c0.3,0.7,1,1.7,2.5,2.1v0.5c-0.1,0-0.3,0-0.5,0
	c-1,0-1.5-0.2-1.9-0.4c-0.4-0.2-0.8-0.4-1.1-0.7c-0.3-0.3-0.6-0.7-0.7-1.1C4.1,17.5,3.9,17,3.9,16c0-1-0.1-1.3-0.1-4s0-3,0.1-4
	c0-1,0.2-1.5,0.3-1.9C4.4,5.7,4.6,5.3,5,4.9c0.3-0.3,0.7-0.6,1.1-0.7C6.5,4.1,7,3.9,8,3.9C9,3.8,9.3,3.8,12,3.8 M12,2
	C9.3,2,8.9,2,7.9,2.1c-1.1,0-1.8,0.2-2.4,0.5C4.8,2.8,4.2,3.2,3.7,3.7C3.2,4.2,2.8,4.8,2.5,5.5C2.3,6.1,2.1,6.8,2.1,7.9
	C2,8.9,2,9.3,2,12s0,3.1,0.1,4.1c0,1.1,0.2,1.8,0.5,2.4c0.2,0.7,0.6,1.3,1.1,1.8c0.5,0.5,1.1,0.9,1.8,1.1c0.6,0.2,1.4,0.4,2.4,0.5
	c0.5,0,0.8,0,1.4,0c0,0,0,0,0,0c0.5,0,1-0.4,1-1v-3.1C9.9,18,9.6,18,9.4,18c-1.5,0-1.8-1-1.8-1c-0.4-0.9-0.9-1.1-0.9-1.1
	c-0.7-0.5,0-0.5,0-0.5c0,0,0,0,0,0C7.6,15.4,8,16.2,8,16.2C8.4,16.8,8.9,17,9.4,17c0.4,0,0.7-0.1,0.9-0.2c0.1-0.5,0.3-0.9,0.5-1
	c-1.7-0.2-3.6-0.9-3.6-3.9c0-0.8,0.3-1.5,0.8-2.1c-0.1-0.2-0.3-1,0.1-2.1c0,0,0.1,0,0.2,0c0.3,0,0.9,0.1,2,0.8
	c0.6-0.2,1.3-0.3,2-0.3c0.7,0,1.3,0.1,2,0.3c1.1-0.7,1.7-0.8,2-0.8c0.1,0,0.2,0,0.2,0c0.4,1.1,0.2,1.9,0.1,2.1
	c0.5,0.5,0.8,1.2,0.8,2.1c0,3-1.8,3.7-3.6,3.9c0.3,0.2,0.5,0.7,0.5,1.4V21c0,0.5,0.4,1,1,1c0,0,0,0,0,0c0.3,0,0.6,0,1,0
	c1.1,0,1.8-0.2,2.4-0.5c1.3-0.5,2.4-1.6,2.9-2.9c0.3-0.6,0.4-1.4,0.5-2.4c0-1.1,0.1-1.4,0.1-4.1s0-3.1-0.1-4.1
	c0-1.1-0.2-1.8-0.5-2.4c-0.2-0.7-0.6-1.3-1.1-1.8c-0.5-0.5-1.1-0.9-1.8-1.2c-0.6-0.2-1.4-0.4-2.4-0.5C15.1,2,14.7,2,12,2L12,2z"/>
</svg>
